<svg xmlns="http://www.w3.org/2000/svg" width="32" height="32" version="1" viewBox="0 0 32 32"><g opacity=".98"><path fill="#f37a5d" d="M 32,16 C 32,24.835821 24.835821,32 16,32 7.164179,32 0,24.835821 0,16 0,7.1641791 7.164179,0 16,0 24.835821,0 32,7.1641791 32,16 l 0,0 z"/><path fill="#fff" d="m 12.337362,8.2482732 c -0.166705,0 -0.333407,0.1667039 -0.333407,0.4167597 0,0.1667039 0.166702,0.3334079 0.333407,0.3334079 0.250055,0 0.500112,0.2500557 0.500112,0.500112 0,0.250056 -0.250057,0.500111 -0.500112,0.500111 l -0.08336,0 c -0.666816,0 -1.166926,0.5001122 -1.166926,1.1669282 0,0.666815 0.50011,1.166927 1.166926,1.166927 l 0,0 0,0 0,0 0,0 c 0.250056,0 0.500111,0.250056 0.500111,0.500111 0,0.250056 -0.250055,0.500112 -0.500111,0.500112 -0.166704,0 -0.333409,0.166703 -0.333409,0.333408 0,0.166703 0.166705,0.333407 0.333409,0.333407 0.666815,0 1.166926,-0.500112 1.166926,-1.166927 0,-0.666816 -0.500111,-1.166926 -1.166926,-1.166926 l -0.08335,0 c -0.250055,0 -0.500111,-0.250056 -0.500111,-0.500112 0,-0.250056 0.166703,-0.500112 0.416759,-0.500112 l 0.08335,0 0,0 0,0 0,0 c 0.666816,0 1.166927,-0.500111 1.166927,-1.1669272 0,-0.666816 -0.333407,-1.2502796 -1.000223,-1.2502796 l 0,0 0,0 0,0 z m 3.084021,0 c -0.166704,0 -0.333408,0.1667039 -0.250057,0.4167597 0,0.1667039 0.166705,0.3334079 0.333409,0.3334079 0.250056,0 0.500111,0.2500557 0.500111,0.500112 0,0.250056 -0.250055,0.500111 -0.500111,0.500111 l -0.08335,0 c -0.666815,0 -1.166928,0.5001122 -1.166928,1.1669282 0,0.666815 0.500113,1.166927 1.166928,1.166927 l 0,0 0,0 0,0 0,0 c 0.250055,0 0.500111,0.250056 0.500111,0.500111 0,0.250056 -0.250056,0.500112 -0.500111,0.500112 -0.166704,0 -0.333408,0.166703 -0.333408,0.333408 0,0.166703 0.166704,0.333407 0.333408,0.333407 0.666816,0 1.166927,-0.500112 1.166927,-1.166927 0,-0.666816 -0.500111,-1.166926 -1.166927,-1.166926 l -0.08336,0 c -0.250056,0 -0.500112,-0.250056 -0.500112,-0.500112 0,-0.250056 0.166704,-0.500112 0.500112,-0.500112 l 0,0 0.08336,0 c 0.666816,0 1.166927,-0.500111 1.166927,-1.1669272 0,-0.666816 -0.41676,-1.2502796 -1.166927,-1.2502796 0.08335,0 0,0 0,0 l 0,0 0,0 z m 3.334078,0 c -0.166704,0 -0.333408,0.1667039 -0.250056,0.4167597 0,0.1667039 0.166703,0.3334079 0.333408,0.3334079 0.250056,0 0.500111,0.2500557 0.500111,0.500112 0,0.250056 -0.250055,0.500111 -0.500111,0.500111 l -0.08335,0 c -0.666817,0 -1.166929,0.5001122 -1.166929,1.1669282 0,0.666815 0.500112,1.166927 1.166929,1.166927 l 0,0 0,0 0,0 0,0 c 0.250055,0 0.500111,0.250056 0.500111,0.500111 0,0.250056 -0.250056,0.500112 -0.500111,0.500112 -0.166705,0 -0.333409,0.166703 -0.333409,0.333408 0,0.166703 0.166704,0.333407 0.333409,0.333407 0.666815,0 1.166926,-0.500112 1.166926,-1.166927 0,-0.666816 -0.500111,-1.166926 -1.166926,-1.166926 l -0.08336,0 c -0.250056,0 -0.500111,-0.250056 -0.500111,-0.500112 0,-0.250056 0.250055,-0.500112 0.500111,-0.500112 l 0.08336,0 0.08335,0 c 0.666815,0 1.166926,-0.500111 1.166926,-1.1669272 0,-0.666816 -0.500111,-1.2502796 -1.250278,-1.2502796 0.08335,0 0.08335,0 0,0 l 0,0 0,0 z m 5.501227,1.5836876 c -0.166705,0 -0.333408,0 -0.41676,0.08336 -0.666815,0.1667042 -1.500335,0.7501682 -2.083798,1.9170952 l 0,0 c -0.666815,1.500335 -1.33363,2.083798 -1.833742,2.417206 -0.250056,0.08336 -0.41676,0.166704 -0.666816,0.250056 -0.416759,0.08335 -0.750167,0.08335 -1.250279,0.08335 l -0.08335,0 -9.835529,0 -0.08335,0 c -0.1667048,0.08335 -0.2500564,0.166696 -0.2500564,0.3334 l 0,1.333631 0,0.08335 0,0 0,0 0,0 0,0.08335 c 0.6668155,2.333854 2.3338544,4.3343 4.5843574,5.251172 l 0,0.08335 0,1.667038 c 0,0.166705 0.166703,0.333408 0.333407,0.333408 l 6.001338,0 c 0.166705,0 0.333409,-0.166703 0.333409,-0.333408 l 0,-1.75039 c 2.083798,-0.916872 3.834189,-2.833967 4.501004,-5.251173 l 0,0 0,0 c 0,-0.08335 0.08335,-0.08335 0.08335,-0.166702 l 0,-1.333629 c 0,-0.166705 -0.166704,-0.333408 -0.333407,-0.333408 l -2.083797,0 c 0.583462,-0.333406 1.000222,-0.750167 1.33363,-1.166926 0.833519,-1.000224 1.333631,-1.917094 3.167374,-2.083799 l 1.000223,0 c 0.166703,0.08335 0.333408,0 0.41676,-0.08335 0.08336,-0.166704 0,-0.41676 -0.166704,-0.500112 -0.500115,-0.333407 -1.583689,-1.0835742 -2.667264,-0.9168702 l 0,0 0,0 z m -15.7535153,5.4178762 14.5865873,0 0,0.666815 -14.5865873,0 0,-0.666815 0,0 0,0 z"/></g></svg>